<?xml version="1.0" encoding="UTF-8" standalone="no"?>
<!DOCTYPE svg PUBLIC "-//W3C//DTD SVG 1.1//EN" "http://www.w3.org/Graphics/SVG/1.1/DTD/svg11.dtd">
<svg width="100%" height="100%" viewBox="0 0 6191 1397" version="1.1" xmlns="http://www.w3.org/2000/svg" xmlns:xlink="http://www.w3.org/1999/xlink" xml:space="preserve" xmlns:serif="http://www.serif.com/" style="fill-rule:evenodd;clip-rule:evenodd;stroke-linecap:round;stroke-linejoin:round;stroke-miterlimit:1.5;">
    <g id="HE-Logo" serif:id="HE Logo" transform="matrix(1,0,0,1,-58.639,-3363.68)">
        <g id="Hurricane-Electric" serif:id="Hurricane Electric" transform="matrix(1.00478,0,0,1,-45.4362,-0.0505267)">
            <g transform="matrix(414.244,0,0,420.387,1567.76,4077.68)">
                <path d="M0.05,0L0.296,0L0.296,-0.029C0.224,-0.029 0.219,-0.037 0.219,-0.085L0.219,-0.325L0.541,-0.325L0.541,-0.085C0.541,-0.037 0.538,-0.029 0.464,-0.029L0.464,0L0.71,0L0.71,-0.029C0.638,-0.029 0.633,-0.037 0.633,-0.085L0.633,-0.574C0.633,-0.621 0.638,-0.63 0.71,-0.631L0.71,-0.66L0.464,-0.66L0.464,-0.631C0.537,-0.631 0.541,-0.621 0.541,-0.574L0.541,-0.363L0.219,-0.363L0.219,-0.574C0.219,-0.621 0.223,-0.631 0.296,-0.631L0.296,-0.66L0.05,-0.66L0.05,-0.631C0.123,-0.63 0.127,-0.621 0.127,-0.574L0.127,-0.085C0.127,-0.037 0.124,-0.029 0.05,-0.029L0.05,0Z" style="fill-rule:nonzero;"/>
            </g>
            <g transform="matrix(414.244,0,0,420.387,1881.87,4077.68)">
                <path d="M0.367,0.012C0.536,0.012 0.617,-0.065 0.617,-0.232L0.617,-0.571C0.617,-0.622 0.62,-0.631 0.694,-0.631L0.694,-0.66L0.448,-0.66L0.448,-0.631C0.52,-0.631 0.525,-0.622 0.525,-0.571L0.525,-0.226C0.525,-0.102 0.475,-0.022 0.369,-0.022C0.262,-0.022 0.212,-0.103 0.212,-0.226L0.212,-0.571C0.212,-0.622 0.216,-0.631 0.289,-0.631L0.289,-0.66L0.043,-0.66L0.043,-0.631C0.116,-0.631 0.12,-0.622 0.12,-0.571L0.12,-0.232C0.12,-0.065 0.198,0.012 0.367,0.012Z" style="fill-rule:nonzero;"/>
            </g>
            <g transform="matrix(487.238,0,0,420.387,2171.02,4077.68)">
                <path d="M0.05,0L0.301,0L0.301,-0.029C0.226,-0.029 0.219,-0.038 0.219,-0.085L0.219,-0.31L0.28,-0.31C0.35,-0.31 0.382,-0.281 0.395,-0.215L0.419,-0.092C0.429,-0.045 0.441,-0.017 0.459,0L0.589,0L0.589,-0.029C0.536,-0.029 0.517,-0.069 0.505,-0.138L0.499,-0.175C0.484,-0.268 0.456,-0.308 0.388,-0.328L0.388,-0.33C0.471,-0.349 0.53,-0.403 0.53,-0.497C0.53,-0.607 0.448,-0.66 0.319,-0.66L0.05,-0.66L0.05,-0.631C0.12,-0.631 0.127,-0.622 0.127,-0.574L0.127,-0.085C0.127,-0.039 0.121,-0.029 0.05,-0.029L0.05,0ZM0.219,-0.346L0.219,-0.588C0.219,-0.613 0.227,-0.625 0.28,-0.625C0.381,-0.625 0.43,-0.582 0.43,-0.485C0.43,-0.389 0.383,-0.346 0.282,-0.346L0.219,-0.346Z" style="fill-rule:nonzero;"/>
            </g>
            <g transform="matrix(414.244,0,0,420.387,2459.61,4077.68)">
                <path d="M0.05,0L0.301,0L0.301,-0.029C0.226,-0.029 0.219,-0.038 0.219,-0.085L0.219,-0.31L0.28,-0.31C0.35,-0.31 0.382,-0.281 0.395,-0.215L0.419,-0.092C0.429,-0.045 0.441,-0.017 0.459,0L0.589,0L0.589,-0.029C0.536,-0.029 0.517,-0.069 0.505,-0.138L0.499,-0.175C0.484,-0.268 0.456,-0.308 0.388,-0.328L0.388,-0.33C0.471,-0.349 0.53,-0.403 0.53,-0.497C0.53,-0.607 0.448,-0.66 0.319,-0.66L0.05,-0.66L0.05,-0.631C0.12,-0.631 0.127,-0.622 0.127,-0.574L0.127,-0.085C0.127,-0.039 0.121,-0.029 0.05,-0.029L0.05,0ZM0.219,-0.346L0.219,-0.588C0.219,-0.613 0.227,-0.625 0.28,-0.625C0.381,-0.625 0.43,-0.582 0.43,-0.485C0.43,-0.389 0.383,-0.346 0.282,-0.346L0.219,-0.346Z" style="fill-rule:nonzero;"/>
            </g>
            <g transform="matrix(414.244,0,0,420.387,2742.56,4077.68)">
                <path d="M0.05,0L0.296,0L0.296,-0.029C0.224,-0.029 0.219,-0.038 0.219,-0.089L0.219,-0.57C0.219,-0.622 0.223,-0.631 0.296,-0.631L0.296,-0.66L0.05,-0.66L0.05,-0.631C0.123,-0.631 0.127,-0.622 0.127,-0.57L0.127,-0.089C0.127,-0.038 0.124,-0.029 0.05,-0.029L0.05,0Z" style="fill-rule:nonzero;"/>
            </g>
            <g transform="matrix(429.795,0,0,420.387,2884.35,4077.68)">
                <path d="M0.366,0.012C0.529,0.012 0.582,-0.086 0.605,-0.148L0.58,-0.161C0.554,-0.101 0.513,-0.022 0.381,-0.022C0.221,-0.022 0.159,-0.178 0.159,-0.331C0.159,-0.45 0.202,-0.638 0.381,-0.638C0.514,-0.638 0.557,-0.546 0.574,-0.48L0.601,-0.48L0.591,-0.66L0.564,-0.66L0.561,-0.649C0.558,-0.642 0.551,-0.635 0.537,-0.635C0.511,-0.635 0.47,-0.672 0.374,-0.672C0.17,-0.672 0.053,-0.54 0.053,-0.322C0.053,-0.117 0.164,0.012 0.366,0.012Z" style="fill-rule:nonzero;"/>
            </g>
            <g transform="matrix(443.723,0,0,420.387,3174.03,4077.68)">
                <path d="M0.564,-0.084L0.355,-0.66L0.299,-0.66L0.087,-0.091C0.07,-0.044 0.06,-0.029 0.007,-0.029L0.007,0L0.185,0L0.185,-0.029L0.149,-0.029C0.121,-0.029 0.117,-0.046 0.125,-0.071L0.188,-0.25L0.41,-0.25L0.473,-0.074C0.481,-0.048 0.476,-0.029 0.447,-0.029L0.409,-0.029L0.409,0L0.638,0L0.638,-0.029C0.589,-0.029 0.579,-0.038 0.564,-0.084ZM0.201,-0.284L0.297,-0.556L0.3,-0.556L0.398,-0.284L0.201,-0.284Z" style="fill-rule:nonzero;"/>
            </g>
            <g transform="matrix(454.495,0,0,420.387,3461.6,4077.68)">
                <path d="M0.537,0.006L0.586,0.006L0.586,-0.583C0.586,-0.615 0.601,-0.631 0.632,-0.631L0.662,-0.631L0.662,-0.66L0.458,-0.66L0.458,-0.631L0.497,-0.631C0.531,-0.631 0.548,-0.615 0.548,-0.583L0.548,-0.148L0.545,-0.148L0.208,-0.66L0.04,-0.66L0.04,-0.631C0.11,-0.63 0.117,-0.623 0.117,-0.574L0.117,-0.081C0.117,-0.045 0.102,-0.029 0.07,-0.029L0.041,-0.029L0.041,0L0.245,0L0.245,-0.029L0.206,-0.029C0.17,-0.029 0.156,-0.044 0.156,-0.081L0.156,-0.562L0.158,-0.562L0.537,0.006Z" style="fill-rule:nonzero;"/>
            </g>
            <g transform="matrix(451.517,0,0,420.387,3769.55,4077.68)">
                <path d="M0.05,0L0.538,0L0.549,-0.172L0.523,-0.172C0.498,-0.058 0.462,-0.033 0.341,-0.033C0.236,-0.033 0.219,-0.045 0.219,-0.111L0.219,-0.325L0.333,-0.325C0.41,-0.325 0.416,-0.303 0.426,-0.242L0.45,-0.242L0.45,-0.446L0.426,-0.446C0.416,-0.384 0.41,-0.363 0.333,-0.363L0.219,-0.363L0.219,-0.59C0.219,-0.621 0.224,-0.626 0.255,-0.626L0.343,-0.626C0.452,-0.626 0.472,-0.598 0.489,-0.5L0.515,-0.5L0.515,-0.66L0.05,-0.66L0.05,-0.631C0.123,-0.631 0.127,-0.623 0.127,-0.571L0.127,-0.089C0.127,-0.037 0.124,-0.029 0.05,-0.029L0.05,0Z" style="fill-rule:nonzero;"/>
            </g>
            <g transform="matrix(452.951,0,0,420.387,4136.48,4077.68)">
                <path d="M0.05,0L0.538,0L0.549,-0.172L0.523,-0.172C0.498,-0.058 0.462,-0.033 0.341,-0.033C0.236,-0.033 0.219,-0.045 0.219,-0.111L0.219,-0.325L0.333,-0.325C0.41,-0.325 0.416,-0.303 0.426,-0.242L0.45,-0.242L0.45,-0.446L0.426,-0.446C0.416,-0.384 0.41,-0.363 0.333,-0.363L0.219,-0.363L0.219,-0.59C0.219,-0.621 0.224,-0.626 0.255,-0.626L0.343,-0.626C0.452,-0.626 0.472,-0.598 0.489,-0.5L0.515,-0.5L0.515,-0.66L0.05,-0.66L0.05,-0.631C0.123,-0.631 0.127,-0.623 0.127,-0.571L0.127,-0.089C0.127,-0.037 0.124,-0.029 0.05,-0.029L0.05,0Z" style="fill-rule:nonzero;"/>
            </g>
            <g transform="matrix(448.029,0,0,420.387,4397.29,4077.68)">
                <path d="M0.05,0L0.526,0L0.537,-0.171L0.511,-0.171C0.486,-0.058 0.452,-0.034 0.339,-0.034C0.242,-0.034 0.219,-0.041 0.219,-0.114L0.219,-0.571C0.219,-0.622 0.223,-0.631 0.298,-0.631L0.298,-0.66L0.05,-0.66L0.05,-0.631C0.123,-0.631 0.127,-0.622 0.127,-0.571L0.127,-0.089C0.127,-0.037 0.124,-0.029 0.05,-0.029L0.05,0Z" style="fill-rule:nonzero;"/>
            </g>
            <g transform="matrix(452.951,0,0,420.387,4649.06,4077.68)">
                <path d="M0.05,0L0.538,0L0.549,-0.172L0.523,-0.172C0.498,-0.058 0.462,-0.033 0.341,-0.033C0.236,-0.033 0.219,-0.045 0.219,-0.111L0.219,-0.325L0.333,-0.325C0.41,-0.325 0.416,-0.303 0.426,-0.242L0.45,-0.242L0.45,-0.446L0.426,-0.446C0.416,-0.384 0.41,-0.363 0.333,-0.363L0.219,-0.363L0.219,-0.59C0.219,-0.621 0.224,-0.626 0.255,-0.626L0.343,-0.626C0.452,-0.626 0.472,-0.598 0.489,-0.5L0.515,-0.5L0.515,-0.66L0.05,-0.66L0.05,-0.631C0.123,-0.631 0.127,-0.623 0.127,-0.571L0.127,-0.089C0.127,-0.037 0.124,-0.029 0.05,-0.029L0.05,0Z" style="fill-rule:nonzero;"/>
            </g>
            <g transform="matrix(434.978,0,0,420.387,4911.46,4077.68)">
                <path d="M0.366,0.012C0.529,0.012 0.582,-0.086 0.605,-0.148L0.58,-0.161C0.554,-0.101 0.513,-0.022 0.381,-0.022C0.221,-0.022 0.159,-0.178 0.159,-0.331C0.159,-0.45 0.202,-0.638 0.381,-0.638C0.514,-0.638 0.557,-0.546 0.574,-0.48L0.601,-0.48L0.591,-0.66L0.564,-0.66L0.561,-0.649C0.558,-0.642 0.551,-0.635 0.537,-0.635C0.511,-0.635 0.47,-0.672 0.374,-0.672C0.17,-0.672 0.053,-0.54 0.053,-0.322C0.053,-0.117 0.164,0.012 0.366,0.012Z" style="fill-rule:nonzero;"/>
            </g>
            <g transform="matrix(414.244,0,0,420.387,5206.59,4077.68)">
                <path d="M0.147,0L0.429,0L0.429,-0.029C0.34,-0.029 0.334,-0.036 0.334,-0.089L0.334,-0.627L0.389,-0.627C0.496,-0.627 0.513,-0.601 0.53,-0.498L0.556,-0.498L0.556,-0.66L0.02,-0.66L0.02,-0.498L0.046,-0.498C0.062,-0.601 0.08,-0.627 0.188,-0.627L0.242,-0.627L0.242,-0.089C0.242,-0.036 0.239,-0.029 0.147,-0.029L0.147,0Z" style="fill-rule:nonzero;"/>
            </g>
            <g transform="matrix(488.566,0,0,420.387,5439.97,4077.68)">
                <path d="M0.05,0L0.301,0L0.301,-0.029C0.226,-0.029 0.219,-0.038 0.219,-0.085L0.219,-0.31L0.28,-0.31C0.35,-0.31 0.382,-0.281 0.395,-0.215L0.419,-0.092C0.429,-0.045 0.441,-0.017 0.459,0L0.589,0L0.589,-0.029C0.536,-0.029 0.517,-0.069 0.505,-0.138L0.499,-0.175C0.484,-0.268 0.456,-0.308 0.388,-0.328L0.388,-0.33C0.471,-0.349 0.53,-0.403 0.53,-0.497C0.53,-0.607 0.448,-0.66 0.319,-0.66L0.05,-0.66L0.05,-0.631C0.12,-0.631 0.127,-0.622 0.127,-0.574L0.127,-0.085C0.127,-0.039 0.121,-0.029 0.05,-0.029L0.05,0ZM0.219,-0.346L0.219,-0.588C0.219,-0.613 0.227,-0.625 0.28,-0.625C0.381,-0.625 0.43,-0.582 0.43,-0.485C0.43,-0.389 0.383,-0.346 0.282,-0.346L0.219,-0.346Z" style="fill-rule:nonzero;"/>
            </g>
            <g transform="matrix(414.244,0,0,420.387,5732.6,4077.68)">
                <path d="M0.05,0L0.296,0L0.296,-0.029C0.224,-0.029 0.219,-0.038 0.219,-0.089L0.219,-0.57C0.219,-0.622 0.223,-0.631 0.296,-0.631L0.296,-0.66L0.05,-0.66L0.05,-0.631C0.123,-0.631 0.127,-0.622 0.127,-0.57L0.127,-0.089C0.127,-0.038 0.124,-0.029 0.05,-0.029L0.05,0Z" style="fill-rule:nonzero;"/>
            </g>
            <g transform="matrix(436.274,0,0,420.387,5873.05,4077.68)">
                <path d="M0.366,0.012C0.529,0.012 0.582,-0.086 0.605,-0.148L0.58,-0.161C0.554,-0.101 0.513,-0.022 0.381,-0.022C0.221,-0.022 0.159,-0.178 0.159,-0.331C0.159,-0.45 0.202,-0.638 0.381,-0.638C0.514,-0.638 0.557,-0.546 0.574,-0.48L0.601,-0.48L0.591,-0.66L0.564,-0.66L0.561,-0.649C0.558,-0.642 0.551,-0.635 0.537,-0.635C0.511,-0.635 0.47,-0.672 0.374,-0.672C0.17,-0.672 0.053,-0.54 0.053,-0.322C0.053,-0.117 0.164,0.012 0.366,0.012Z" style="fill-rule:nonzero;"/>
            </g>
        </g>
        <g transform="matrix(1.21416,0,0,1,-394.076,6.82121e-13)">
            <g transform="matrix(1.11117,0,0,1,-179.7,0)">
                <g transform="matrix(267.825,0,0,267.825,1616.45,4369.17)">
                    <rect x="0.093" y="-0.716" width="0.095" height="0.716" style="fill:#006;fill-rule:nonzero;"/>
                </g>
                <g transform="matrix(267.825,0,0,267.825,1729.96,4369.17)">
                    <path d="M0.076,0L0.076,-0.716L0.173,-0.716L0.549,-0.154L0.549,-0.716L0.64,-0.716L0.64,0L0.543,0L0.167,-0.563L0.167,0L0.076,0Z" style="fill:#006;fill-rule:nonzero;"/>
                </g>
                <g transform="matrix(267.825,0,0,267.825,1962.48,4369.17)">
                    <path d="M0.259,0L0.259,-0.631L0.023,-0.631L0.023,-0.716L0.591,-0.716L0.591,-0.631L0.354,-0.631L0.354,0L0.259,0Z" style="fill:#006;fill-rule:nonzero;"/>
                </g>
                <g transform="matrix(267.825,0,0,267.825,2165.18,4369.17)">
                    <path d="M0.079,0L0.079,-0.716L0.597,-0.716L0.597,-0.631L0.174,-0.631L0.174,-0.412L0.57,-0.412L0.57,-0.328L0.174,-0.328L0.174,-0.084L0.613,-0.084L0.613,0L0.079,0Z" style="fill:#006;fill-rule:nonzero;"/>
                </g>
                <g transform="matrix(267.825,0,0,267.825,2382.92,4369.17)">
                    <path d="M0.079,0L0.079,-0.716L0.396,-0.716C0.46,-0.716 0.508,-0.709 0.542,-0.697C0.575,-0.684 0.601,-0.661 0.621,-0.628C0.641,-0.596 0.651,-0.56 0.651,-0.521C0.651,-0.47 0.634,-0.427 0.602,-0.392C0.569,-0.357 0.518,-0.335 0.449,-0.326C0.474,-0.314 0.493,-0.302 0.506,-0.29C0.534,-0.265 0.56,-0.233 0.585,-0.195L0.709,0L0.59,0L0.496,-0.149C0.468,-0.192 0.445,-0.225 0.427,-0.248C0.409,-0.27 0.393,-0.286 0.379,-0.295C0.365,-0.305 0.351,-0.311 0.336,-0.314C0.325,-0.317 0.308,-0.318 0.283,-0.318L0.173,-0.318L0.173,0L0.079,0ZM0.173,-0.4L0.377,-0.4C0.42,-0.4 0.454,-0.404 0.479,-0.413C0.503,-0.422 0.521,-0.437 0.534,-0.456C0.547,-0.476 0.553,-0.497 0.553,-0.521C0.553,-0.554 0.541,-0.582 0.516,-0.604C0.492,-0.626 0.453,-0.637 0.4,-0.637L0.173,-0.637L0.173,-0.4Z" style="fill:#006;fill-rule:nonzero;"/>
                </g>
                <g transform="matrix(267.825,0,0,267.825,2615.43,4369.17)">
                    <path d="M0.076,0L0.076,-0.716L0.173,-0.716L0.549,-0.154L0.549,-0.716L0.64,-0.716L0.64,0L0.543,0L0.167,-0.563L0.167,0L0.076,0Z" style="fill:#006;fill-rule:nonzero;"/>
                </g>
                <g transform="matrix(267.825,0,0,267.825,2847.95,4369.17)">
                    <path d="M0.079,0L0.079,-0.716L0.597,-0.716L0.597,-0.631L0.174,-0.631L0.174,-0.412L0.57,-0.412L0.57,-0.328L0.174,-0.328L0.174,-0.084L0.613,-0.084L0.613,0L0.079,0Z" style="fill:#006;fill-rule:nonzero;"/>
                </g>
                <g transform="matrix(267.825,0,0,267.825,3065.69,4369.17)">
                    <path d="M0.259,0L0.259,-0.631L0.023,-0.631L0.023,-0.716L0.591,-0.716L0.591,-0.631L0.354,-0.631L0.354,0L0.259,0Z" style="fill:#006;fill-rule:nonzero;"/>
                </g>
            </g>
            <g transform="matrix(1.11117,0,0,1,-397.654,0)">
                <g transform="matrix(267.825,0,0,267.825,3577.01,4369.17)">
                    <path d="M0.045,-0.23L0.134,-0.238C0.139,-0.202 0.148,-0.173 0.164,-0.15C0.179,-0.127 0.203,-0.108 0.236,-0.094C0.268,-0.08 0.305,-0.073 0.346,-0.073C0.382,-0.073 0.414,-0.078 0.441,-0.089C0.469,-0.1 0.49,-0.114 0.503,-0.133C0.517,-0.152 0.523,-0.172 0.523,-0.194C0.523,-0.217 0.517,-0.236 0.504,-0.253C0.491,-0.27 0.469,-0.284 0.439,-0.295C0.42,-0.303 0.378,-0.315 0.312,-0.33C0.246,-0.346 0.2,-0.361 0.174,-0.375C0.14,-0.393 0.114,-0.415 0.097,-0.442C0.081,-0.468 0.072,-0.498 0.072,-0.531C0.072,-0.567 0.083,-0.601 0.103,-0.632C0.124,-0.663 0.153,-0.687 0.193,-0.704C0.232,-0.72 0.276,-0.728 0.324,-0.728C0.377,-0.728 0.424,-0.719 0.465,-0.702C0.505,-0.685 0.536,-0.66 0.558,-0.627C0.58,-0.594 0.592,-0.556 0.593,-0.514L0.502,-0.507C0.498,-0.553 0.481,-0.587 0.453,-0.61C0.425,-0.633 0.383,-0.645 0.328,-0.645C0.271,-0.645 0.229,-0.634 0.203,-0.613C0.177,-0.592 0.164,-0.567 0.164,-0.537C0.164,-0.511 0.173,-0.49 0.191,-0.474C0.21,-0.457 0.257,-0.44 0.334,-0.423C0.411,-0.405 0.464,-0.39 0.493,-0.377C0.534,-0.358 0.565,-0.333 0.585,-0.304C0.605,-0.274 0.615,-0.241 0.615,-0.202C0.615,-0.164 0.604,-0.128 0.582,-0.094C0.56,-0.061 0.529,-0.035 0.488,-0.016C0.447,0.003 0.401,0.012 0.35,0.012C0.285,0.012 0.231,0.003 0.187,-0.016C0.143,-0.035 0.109,-0.063 0.084,-0.101C0.059,-0.139 0.046,-0.182 0.045,-0.23Z" style="fill:#006;fill-rule:nonzero;"/>
                </g>
                <g transform="matrix(267.825,0,0,267.825,3794.75,4369.17)">
                    <path d="M0.079,0L0.079,-0.716L0.597,-0.716L0.597,-0.631L0.174,-0.631L0.174,-0.412L0.57,-0.412L0.57,-0.328L0.174,-0.328L0.174,-0.084L0.613,-0.084L0.613,0L0.079,0Z" style="fill:#006;fill-rule:nonzero;"/>
                </g>
                <g transform="matrix(267.825,0,0,267.825,4012.49,4369.17)">
                    <path d="M0.079,0L0.079,-0.716L0.396,-0.716C0.46,-0.716 0.508,-0.709 0.542,-0.697C0.575,-0.684 0.601,-0.661 0.621,-0.628C0.641,-0.596 0.651,-0.56 0.651,-0.521C0.651,-0.47 0.634,-0.427 0.602,-0.392C0.569,-0.357 0.518,-0.335 0.449,-0.326C0.474,-0.314 0.493,-0.302 0.506,-0.29C0.534,-0.265 0.56,-0.233 0.585,-0.195L0.709,0L0.59,0L0.496,-0.149C0.468,-0.192 0.445,-0.225 0.427,-0.248C0.409,-0.27 0.393,-0.286 0.379,-0.295C0.365,-0.305 0.351,-0.311 0.336,-0.314C0.325,-0.317 0.308,-0.318 0.283,-0.318L0.173,-0.318L0.173,0L0.079,0ZM0.173,-0.4L0.377,-0.4C0.42,-0.4 0.454,-0.404 0.479,-0.413C0.503,-0.422 0.521,-0.437 0.534,-0.456C0.547,-0.476 0.553,-0.497 0.553,-0.521C0.553,-0.554 0.541,-0.582 0.516,-0.604C0.492,-0.626 0.453,-0.637 0.4,-0.637L0.173,-0.637L0.173,-0.4Z" style="fill:#006;fill-rule:nonzero;"/>
                </g>
                <g transform="matrix(267.825,0,0,267.825,4245,4369.17)">
                    <path d="M0.282,0L0.004,-0.716L0.107,-0.716L0.293,-0.196C0.308,-0.154 0.32,-0.115 0.331,-0.079C0.342,-0.118 0.354,-0.157 0.369,-0.196L0.563,-0.716L0.659,-0.716L0.379,0L0.282,0Z" style="fill:#006;fill-rule:nonzero;"/>
                </g>
                <g transform="matrix(267.825,0,0,267.825,4462.74,4369.17)">
                    <rect x="0.093" y="-0.716" width="0.095" height="0.716" style="fill:#006;fill-rule:nonzero;"/>
                </g>
                <g transform="matrix(267.825,0,0,267.825,4576.25,4369.17)">
                    <path d="M0.588,-0.251L0.683,-0.227C0.663,-0.149 0.627,-0.09 0.575,-0.049C0.524,-0.008 0.461,0.012 0.386,0.012C0.309,0.012 0.246,-0.003 0.198,-0.035C0.15,-0.066 0.113,-0.112 0.088,-0.171C0.062,-0.231 0.05,-0.295 0.05,-0.363C0.05,-0.438 0.064,-0.503 0.093,-0.558C0.121,-0.614 0.162,-0.656 0.214,-0.685C0.267,-0.714 0.325,-0.728 0.388,-0.728C0.459,-0.728 0.52,-0.71 0.568,-0.673C0.617,-0.637 0.651,-0.586 0.67,-0.52L0.577,-0.498C0.561,-0.55 0.536,-0.588 0.505,-0.611C0.473,-0.635 0.434,-0.647 0.386,-0.647C0.331,-0.647 0.285,-0.634 0.248,-0.607C0.211,-0.581 0.185,-0.546 0.17,-0.501C0.155,-0.457 0.147,-0.411 0.147,-0.364C0.147,-0.303 0.156,-0.25 0.174,-0.204C0.192,-0.159 0.219,-0.125 0.257,-0.103C0.294,-0.08 0.335,-0.069 0.378,-0.069C0.431,-0.069 0.476,-0.084 0.513,-0.115C0.55,-0.145 0.575,-0.191 0.588,-0.251Z" style="fill:#006;fill-rule:nonzero;"/>
                </g>
                <g transform="matrix(267.825,0,0,267.825,4808.77,4369.17)">
                    <path d="M0.079,0L0.079,-0.716L0.597,-0.716L0.597,-0.631L0.174,-0.631L0.174,-0.412L0.57,-0.412L0.57,-0.328L0.174,-0.328L0.174,-0.084L0.613,-0.084L0.613,0L0.079,0Z" style="fill:#006;fill-rule:nonzero;"/>
                </g>
                <g transform="matrix(267.825,0,0,267.825,5026.51,4369.17)">
                    <path d="M0.045,-0.23L0.134,-0.238C0.139,-0.202 0.148,-0.173 0.164,-0.15C0.179,-0.127 0.203,-0.108 0.236,-0.094C0.268,-0.08 0.305,-0.073 0.346,-0.073C0.382,-0.073 0.414,-0.078 0.441,-0.089C0.469,-0.1 0.49,-0.114 0.503,-0.133C0.517,-0.152 0.523,-0.172 0.523,-0.194C0.523,-0.217 0.517,-0.236 0.504,-0.253C0.491,-0.27 0.469,-0.284 0.439,-0.295C0.42,-0.303 0.378,-0.315 0.312,-0.33C0.246,-0.346 0.2,-0.361 0.174,-0.375C0.14,-0.393 0.114,-0.415 0.097,-0.442C0.081,-0.468 0.072,-0.498 0.072,-0.531C0.072,-0.567 0.083,-0.601 0.103,-0.632C0.124,-0.663 0.153,-0.687 0.193,-0.704C0.232,-0.72 0.276,-0.728 0.324,-0.728C0.377,-0.728 0.424,-0.719 0.465,-0.702C0.505,-0.685 0.536,-0.66 0.558,-0.627C0.58,-0.594 0.592,-0.556 0.593,-0.514L0.502,-0.507C0.498,-0.553 0.481,-0.587 0.453,-0.61C0.425,-0.633 0.383,-0.645 0.328,-0.645C0.271,-0.645 0.229,-0.634 0.203,-0.613C0.177,-0.592 0.164,-0.567 0.164,-0.537C0.164,-0.511 0.173,-0.49 0.191,-0.474C0.21,-0.457 0.257,-0.44 0.334,-0.423C0.411,-0.405 0.464,-0.39 0.493,-0.377C0.534,-0.358 0.565,-0.333 0.585,-0.304C0.605,-0.274 0.615,-0.241 0.615,-0.202C0.615,-0.164 0.604,-0.128 0.582,-0.094C0.56,-0.061 0.529,-0.035 0.488,-0.016C0.447,0.003 0.401,0.012 0.35,0.012C0.285,0.012 0.231,0.003 0.187,-0.016C0.143,-0.035 0.109,-0.063 0.084,-0.101C0.059,-0.139 0.046,-0.182 0.045,-0.23Z" style="fill:#006;fill-rule:nonzero;"/>
                </g>
            </g>
        </g>
        <path id="HE" d="M605.289,3670.89C534.392,3670.89 428.072,3670.88 392.597,3670.88C392.597,3670.88 392.606,3676.47 392.606,3679.26C392.608,3699.12 457.219,3679.31 457.451,3727.95C457.557,3750.21 457.252,4039.14 457.208,4111.73C457.17,4174.04 392.476,4136.46 392.659,4174.06C392.66,4174.15 500.431,4174.01 535.87,4174C559.012,4173.99 605.296,4174.48 605.296,4174.02C605.255,4135.88 535.935,4173.83 535.851,4111.7C535.812,4082.8 535.726,3938.06 535.726,3938.06L756.617,3938.21C756.617,3938.21 756.517,4277.72 756.588,4356.73C756.631,4404.83 683.771,4369.04 684.193,4404.81C684.195,4405.02 1068.08,4404.83 1068.08,4404.83L1112.03,4277.54C1112.03,4277.54 1086.4,4277.54 1086.4,4277.55C1052.83,4333.35 1046.59,4367.85 934.134,4367.85C875.908,4367.85 859.287,4367.9 859.287,4367.9C859.287,4367.9 827.599,4367.91 827.747,4341.03C827.822,4327.24 827.744,4159.05 827.744,4159.05C827.744,4159.05 945.564,4159.02 946.402,4159.02C978.31,4159.02 1001.3,4158.29 1001.3,4239.86C1001.3,4239.86 1027.36,4239.86 1027.36,4239.86L1027.37,4051.57L1001.31,4051.58C1001.31,4051.58 1001.27,4125.23 946.371,4125.22C919.213,4125.21 827.744,4125.23 827.744,4125.23L827.744,3938.22L1001.3,3938.22C1001.3,3938.22 1045.36,3938.23 1045.38,4020.47C1045.38,4020.48 1073.35,4020.48 1073.35,4020.48L1068.59,3902.03L827.744,3902.03C827.744,3902.03 827.766,3728.43 827.766,3728.02C827.766,3679.43 900.731,3699.14 900.731,3679.23C900.731,3679.15 903.507,3671 900.731,3670.89C865.426,3669.5 724.205,3669.5 688.9,3670.89C686.124,3671 688.901,3679.22 688.901,3679.23C688.901,3699.11 756.63,3679.24 756.63,3727.99C756.63,3728.48 756.631,3902.04 756.631,3902.04L535.834,3902.07C535.834,3902.07 535.8,3729.76 535.8,3727.99C535.8,3679.18 605.289,3699.66 605.289,3679.23"/>
        <g id="Round-Thingy" serif:id="Round Thingy" transform="matrix(1.32231,0,0,1.24519,-593.21,-1356.37)">
            <ellipse cx="1011.69" cy="4351.38" rx="485.451" ry="525.429" style="fill:none;stroke:#006;stroke-width:68.52px;"/>
        </g>
    </g>
</svg>
